# xmcd
#
# Track frame offsets:
#	182
#	13762
#	26020
#	40905
#	53607
#	64960
#	78227
#	88032
#	100580
#	114145
#	125047
#	133272
#	145172
#	157987
#	169472
#	179057
#	191690
#	200415
#
# Disc length: 2782 seconds
# Revision: 8
# Processed by: cddbd v1.5.2PL0 Copyright (c) Steve Scherf et al.
# Submitted via: dBpowerAMP V12.0
#
DISCID=fb0adc12
DTITLE=Various Artist - Blues Masters, Volume 14: More Jump Blues [Rhino R2 71133]
DYEAR=1993
DGENRE=Blues
TTITLE0=Tarheel Slim - Number 9 Train
TTITLE1=Louis Jordan And His Tympani Five - Choo Choo Ch'boogie
TTITLE2=Professor Longhair - Ball The Wall
TTITLE3=Little Richard With Johnny Otis Band - Little Richard's Boogie
TTITLE4=Ruth Brown - Wild Wild Young Men
TTITLE5=Big Joe Turner And Orchestra Feat. Van Piano Man Walls - Boogie Woogie Country Girl
TTITLE6=Louis Prima With Sam Butera And The Witnesses - 5 Months 2 Weeks 2 Days
TTITLE7=Floyd Dixon And His Band - Hey Bartender
TTITLE8=Joe Liggins And His Honeydrippers - Pink Champagne
TTITLE9=Young Jessie - Don't Happen No More
TTITLE10=LaVern Baker - Voodoo Voodoo
TTITLE11=Sam Price And His Texas Bluesicians - Rib Joint
TTITLE12=Bobby Charles - Later Alligator
TTITLE13=Big Maybell - That's A Pretty Good Love
TTITLE14=Lloyd Price And His Band - Forgive Me Clawdy
TTITLE15=Faye Adams With Joe Morris Orchestra - I'll Be True
TTITLE16=Piano Red - Jump Man Jump
TTITLE17=Wynonie Harris - Destination Love
EXTD=
EXTT0=
EXTT1=
EXTT2=
EXTT3=
EXTT4=
EXTT5=
EXTT6=
EXTT7=
EXTT8=
EXTT9=
EXTT10=
EXTT11=
EXTT12=
EXTT13=
EXTT14=
EXTT15=
EXTT16=
EXTT17=
PLAYORDER=
